<svg width="80" height="80" viewBox="0 0 80 80" fill="none" xmlns="http://www.w3.org/2000/svg">
  <!-- Fond bleu plein bord (le téléphone applique son propre masque) -->
  <rect width="80" height="80" fill="#09307e"/>

  <defs>
    <linearGradient id="gradient-main" x1="0%" y1="0%" x2="100%" y2="100%">
      <stop offset="0%" stop-color="#ffffff"/>
      <stop offset="100%" stop-color="#f58820"/>
    </linearGradient>
    <linearGradient id="gradient-lines" x1="0%" y1="0%" x2="100%" y2="100%">
      <stop offset="0%" stop-color="#ffffff" stop-opacity="0.4"/>
      <stop offset="100%" stop-color="#f58820" stop-opacity="0.4"/>
    </linearGradient>
  </defs>

  <!-- Lignes de connexion -->
  <g stroke="url(#gradient-lines)" stroke-width="2" stroke-linecap="round">
    <line x1="40" y1="40" x2="20" y2="20" opacity="0.7"/>
    <line x1="40" y1="40" x2="60" y2="20" opacity="0.7"/>
    <line x1="40" y1="40" x2="20" y2="60" opacity="0.7"/>
    <line x1="40" y1="40" x2="60" y2="60" opacity="0.7"/>
    <line x1="40" y1="40" x2="40" y2="12" opacity="0.7"/>
    <line x1="40" y1="40" x2="40" y2="68" opacity="0.7"/>
    <line x1="40" y1="40" x2="12" y2="40" opacity="0.7"/>
    <line x1="40" y1="40" x2="68" y2="40" opacity="0.7"/>

    <line x1="20" y1="20" x2="40" y2="12" opacity="0.4"/>
    <line x1="60" y1="20" x2="40" y2="12" opacity="0.4"/>
    <line x1="20" y1="20" x2="12" y2="40" opacity="0.4"/>
    <line x1="60" y1="20" x2="68" y2="40" opacity="0.4"/>
    <line x1="20" y1="60" x2="12" y2="40" opacity="0.4"/>
    <line x1="60" y1="60" x2="68" y2="40" opacity="0.4"/>
    <line x1="20" y1="60" x2="40" y2="68" opacity="0.4"/>
    <line x1="60" y1="60" x2="40" y2="68" opacity="0.4"/>
  </g>

  <!-- Noeuds extérieurs -->
  <g>
    <circle cx="20" cy="20" r="5" fill="#ffffff"/>
    <circle cx="60" cy="20" r="5" fill="rgba(255,255,255,0.8)"/>
    <circle cx="20" cy="60" r="5" fill="#f58820"/>
    <circle cx="60" cy="60" r="5" fill="#f5a623"/>

    <circle cx="40" cy="12" r="4" fill="#ffffff"/>
    <circle cx="40" cy="68" r="4" fill="#f58820"/>
    <circle cx="12" cy="40" r="4" fill="rgba(255,255,255,0.8)"/>
    <circle cx="68" cy="40" r="4" fill="#f5a623"/>
  </g>

  <!-- Noeud central -->
  <g>
    <circle cx="40" cy="40" r="12" fill="url(#gradient-main)"/>
    <circle cx="40" cy="40" r="8" fill="#09307e" opacity="0.4"/>
    <circle cx="40" cy="40" r="4" fill="white"/>
  </g>
</svg>
